<svg width="36" height="35" viewBox="0 0 36 35" fill="none" xmlns="http://www.w3.org/2000/svg">
<rect width="36" height="34.1053" rx="5" fill="#FFA800" fill-opacity="0.79"/>
<path d="M10.3989 8.52637C10.6596 8.52637 10.8493 8.52637 11.039 8.52637C15.7804 8.52637 20.5219 8.52637 25.2633 8.52637C26.745 8.52637 27.4681 9.25024 27.4681 10.7573C27.4681 11.5643 27.48 12.3831 27.4681 13.19C27.4562 14.3767 26.6739 15.1599 25.5004 15.1718C24.9077 15.1837 24.3269 15.1718 23.6868 15.1718C23.6868 16.0974 23.6868 16.9518 23.6868 17.8181C23.6749 20.1915 22.0747 21.8053 19.7158 21.8172C17.9378 21.8172 16.1597 21.8291 14.3817 21.8172C12.0465 21.8053 10.4226 20.2033 10.4226 17.8774C10.387 14.7802 10.3989 11.7067 10.3989 8.52637ZM23.7223 10.4369C23.7223 11.3625 23.7223 12.3 23.7223 13.2375C24.3387 13.2375 24.9314 13.2375 25.5241 13.2375C25.5241 12.2882 25.5241 11.3625 25.5241 10.4369C24.9077 10.4369 24.3387 10.4369 23.7223 10.4369Z" fill="#F4F2F6"/>
<path d="M25.5363 23.7513C25.5363 24.3684 25.5363 24.9618 25.5363 25.5788C19.8584 25.5788 14.2043 25.5788 8.52637 25.5788C8.52637 24.9618 8.52637 24.3803 8.52637 23.7513C14.1805 23.7513 19.8347 23.7513 25.5363 23.7513Z" fill="#F4F2F6"/>
</svg>
