<svg width="19" height="18" viewBox="0 0 19 18" fill="none" xmlns="http://www.w3.org/2000/svg">
<path d="M1.8725 0C2.13328 0 2.32294 0 2.5126 0C7.25405 0 11.9955 0 16.737 0C18.2187 0 18.9417 0.723876 18.9417 2.23096C18.9417 3.03791 18.9536 3.85672 18.9417 4.66366C18.9299 5.85035 18.1475 6.63356 16.974 6.64542C16.3813 6.65729 15.8005 6.64542 15.1604 6.64542C15.1604 7.57104 15.1604 8.42545 15.1604 9.29173C15.1486 11.6651 13.5483 13.279 11.1895 13.2908C9.41141 13.2908 7.63337 13.3027 5.85532 13.2908C3.52016 13.279 1.89621 11.677 1.89621 9.35106C1.86065 6.25382 1.8725 3.18031 1.8725 0ZM15.196 1.91056C15.196 2.83617 15.196 3.77365 15.196 4.71113C15.8124 4.71113 16.4051 4.71113 16.9977 4.71113C16.9977 3.76178 16.9977 2.83617 16.9977 1.91056C16.3813 1.91056 15.8124 1.91056 15.196 1.91056Z" fill="#F4F2F6"/>
<path d="M17.01 15.2251C17.01 15.8422 17.01 16.4355 17.01 17.0526C11.3321 17.0526 5.67789 17.0526 0 17.0526C0 16.4355 0 15.854 0 15.2251C5.65418 15.2251 11.3084 15.2251 17.01 15.2251Z" fill="#F4F2F6"/>
</svg>
