<svg width="32" height="30" viewBox="0 0 32 30" fill="none" xmlns="http://www.w3.org/2000/svg">
<path d="M16.6747 29.9999C14.4206 29.9999 12.2411 29.9999 10.002 29.9999C10.002 29.776 10.002 29.5819 10.002 29.373C10.002 22.7749 10.002 16.162 9.98706 9.56395C9.98706 9.01162 10.1513 8.87727 10.6737 8.8922C12.4651 8.92206 14.2564 8.90713 16.0477 8.90713C16.2268 8.90713 16.4209 8.90713 16.6448 8.90713C16.6448 9.81772 16.6448 10.6984 16.6448 11.7285C16.8836 11.4896 17.018 11.3702 17.1523 11.2358C20.0931 8.36973 25.1983 8.11596 28.2137 10.6835C29.9603 12.1763 30.7216 14.1617 30.9903 16.371C31.0799 17.1323 31.0948 17.8936 31.0948 18.6549C31.1097 22.2226 31.0948 25.7754 31.0948 29.3431C31.0948 29.5372 31.0948 29.7461 31.0948 29.985C28.8706 29.985 26.6911 29.985 24.4221 29.985C24.4221 29.776 24.4221 29.567 24.4221 29.3431C24.4221 25.9993 24.4221 22.6704 24.4221 19.3266C24.4221 18.7445 24.3923 18.1623 24.2728 17.61C23.8698 15.5649 22.4367 14.4005 20.4215 14.4304C18.4958 14.4602 17.1374 15.6544 16.7791 17.6995C16.6896 18.1772 16.6597 18.6698 16.6597 19.1475C16.6448 22.5361 16.6597 25.9396 16.6597 29.3282C16.6747 29.5372 16.6747 29.7461 16.6747 29.9999Z" fill="#E5E5E5"/>
<path d="M6.62827 29.9999C4.4339 29.9999 2.25446 29.9999 0.045166 29.9999C0.045166 22.9839 0.045166 15.9829 0.045166 8.93701C2.23953 8.93701 4.40404 8.93701 6.62827 8.93701C6.62827 15.9381 6.62827 22.9392 6.62827 29.9999Z" fill="#E5E5E5"/>
<path d="M3.44863 5.57822C2.47833 5.54836 1.65731 5.3543 0.970634 4.78705C-0.492277 3.57791 -0.268362 1.38354 1.41846 0.487883C2.59775 -0.139078 3.85167 -0.154006 5.07574 0.398318C6.16546 0.89093 6.79242 2.02543 6.64315 3.10022C6.47894 4.33922 5.56835 5.23488 4.23979 5.48865C3.95617 5.53343 3.65761 5.56329 3.44863 5.57822Z" fill="currentColor"/>
</svg>
