<svg width="33" height="32" viewBox="0 0 33 32" fill="none" xmlns="http://www.w3.org/2000/svg">
<path d="M4.18236e-05 15.97C0.0200543 7.12448 7.20453 -0.0199705 16.07 4.19404e-05C24.8955 0.0200544 32.04 7.22454 32.02 16.0901C31.9799 24.8755 24.7955 32.02 15.99 32C7.14449 32 -0.0199706 24.8155 4.18236e-05 15.97ZM17.531 23.975C17.531 20.7129 17.531 17.571 17.531 14.469C16.4703 14.469 15.4697 14.469 14.469 14.469C14.469 17.671 14.469 20.813 14.469 23.975C15.5097 23.975 16.5103 23.975 17.531 23.975ZM14.4891 8.04505C14.4891 9.16575 14.4891 10.1664 14.4891 11.167C15.5497 11.167 16.5503 11.167 17.551 11.167C17.551 10.1063 17.551 9.0857 17.551 8.04505C16.4903 8.04505 15.5097 8.04505 14.4891 8.04505Z" fill="#E4E0E9"/>
</svg>
